<?xml version="1.0" encoding="UTF-8" standalone="no"?>
<!DOCTYPE svg PUBLIC "-//W3C//DTD SVG 1.1//EN"
 "http://www.w3.org/Graphics/SVG/1.1/DTD/svg11.dtd">
<!--
  Licensed under the Apache License, Version 2.0 (the "License");
  you may not use this file except in compliance with the License.
  You may obtain a copy of the License at

    http://www.apache.org/licenses/LICENSE-2.0

  Unless required by applicable law or agreed to in writing, software
  distributed under the License is distributed on an "AS IS" BASIS,
  WITHOUT WARRANTIES OR CONDITIONS OF ANY KIND, either express or implied.
  See the License for the specific language governing permissions and
  limitations under the License. See accompanying LICENSE file.
-->
<!-- Generated by graphviz version 12.2.1 (20241206.2353)
 -->
<!-- Title: LogServiceStates Pages: 1 -->
<svg width="317pt" height="639pt"
 viewBox="0.00 0.00 317.00 638.75" xmlns="http://www.w3.org/2000/svg" xmlns:xlink="http://www.w3.org/1999/xlink">
<g id="graph0" class="graph" transform="scale(1 1) rotate(0) translate(4 634.75)">
<title>LogServiceStates</title>
<polygon fill="white" stroke="none" points="-4,4 -4,-634.75 313,-634.75 313,4 -4,4"/>
<!-- write -->
<g id="node1" class="node">
<title>write</title>
<polygon fill="grey" stroke="none" points="237.38,-630.75 178.62,-630.75 178.62,-594.75 237.38,-594.75 237.38,-630.75"/>
<text text-anchor="middle" x="208" y="-606.92" font-family="Times,serif" font-size="16.00">write()</text>
</g>
<!-- OPEN -->
<g id="node7" class="node">
<title>OPEN</title>
<polygon fill="none" stroke="black" points="203,-509.25 145.75,-482.5 203,-455.75 260.25,-482.5 203,-509.25"/>
<polyline fill="none" stroke="black" points="156.62,-487.58 156.62,-477.42"/>
<polyline fill="none" stroke="black" points="192.13,-460.83 213.87,-460.83"/>
<polyline fill="none" stroke="black" points="249.38,-477.42 249.38,-487.58"/>
<polyline fill="none" stroke="black" points="213.87,-504.17 192.13,-504.17"/>
<text text-anchor="middle" x="203" y="-476.68" font-family="Times,serif" font-size="16.00">OPEN</text>
</g>
<!-- write&#45;&gt;OPEN -->
<g id="edge8" class="edge">
<title>write&#45;&gt;OPEN</title>
<path fill="none" stroke="black" d="M202.62,-594.98C199.74,-575.64 198.03,-543.31 198.28,-518.43"/>
<polygon fill="black" stroke="black" points="201.77,-518.85 198.51,-508.77 194.77,-518.68 201.77,-518.85"/>
</g>
<!-- read1 -->
<g id="node2" class="node">
<title>read1</title>
<polygon fill="grey" stroke="none" points="309,-630.75 255,-630.75 255,-594.75 309,-594.75 309,-630.75"/>
<text text-anchor="middle" x="282" y="-606.92" font-family="Times,serif" font-size="16.00">read()</text>
</g>
<!-- read1&#45;&gt;OPEN -->
<g id="edge9" class="edge">
<title>read1&#45;&gt;OPEN</title>
<path fill="none" stroke="black" d="M266.94,-594.98C252.31,-574.81 230.79,-540.52 216.66,-515.28"/>
<polygon fill="black" stroke="black" points="219.86,-513.85 212,-506.75 213.72,-517.21 219.86,-513.85"/>
</g>
<!-- read2 -->
<g id="node3" class="node">
<title>read2</title>
<polygon fill="grey" stroke="none" points="54,-630.75 0,-630.75 0,-594.75 54,-594.75 54,-630.75"/>
<text text-anchor="middle" x="27" y="-606.92" font-family="Times,serif" font-size="16.00">read()</text>
</g>
<!-- CLOSED -->
<g id="node9" class="node">
<title>CLOSED</title>
<polygon fill="none" stroke="black" points="86.75,-386.75 9.25,-386.75 9.25,-350.75 86.75,-350.75 86.75,-386.75"/>
<text text-anchor="middle" x="48" y="-362.93" font-family="Times,serif" font-size="16.00">CLOSED</text>
</g>
<!-- read2&#45;&gt;CLOSED -->
<g id="edge12" class="edge">
<title>read2&#45;&gt;CLOSED</title>
<path fill="none" stroke="black" d="M24.81,-595.12C24.52,-554.39 33.34,-449.27 40.98,-398.3"/>
<polygon fill="black" stroke="black" points="44.4,-399.07 42.55,-388.64 37.49,-397.95 44.4,-399.07"/>
</g>
<!-- export -->
<g id="node4" class="node">
<title>export</title>
<polygon fill="grey" stroke="none" points="160.88,-630.75 93.12,-630.75 93.12,-594.75 160.88,-594.75 160.88,-630.75"/>
<text text-anchor="middle" x="127" y="-606.92" font-family="Times,serif" font-size="16.00">export()</text>
</g>
<!-- external2 -->
<g id="node6" class="node">
<title>external2</title>
</g>
<!-- export&#45;&gt;external2 -->
<g id="edge16" class="edge">
<title>export&#45;&gt;external2</title>
<path fill="none" stroke="black" stroke-dasharray="1,5" d="M100.22,-594.91C94.38,-589.84 88.99,-583.74 85.75,-576.75 76.27,-556.28 78.65,-530.52 82.79,-511.26"/>
<polygon fill="black" stroke="black" points="86.15,-512.23 85.15,-501.69 79.36,-510.56 86.15,-512.23"/>
<text text-anchor="middle" x="113.88" y="-563.45" font-family="Times,serif" font-size="14.00">Writes</text>
<text text-anchor="middle" x="113.88" y="-546.95" font-family="Times,serif" font-size="14.00">Data</text>
<text text-anchor="middle" x="113.88" y="-530.45" font-family="Times,serif" font-size="14.00">Externally</text>
</g>
<!-- export&#45;&gt;OPEN -->
<g id="edge10" class="edge">
<title>export&#45;&gt;OPEN</title>
<path fill="none" stroke="black" d="M132.2,-594.98C142.46,-573.76 163.97,-536.91 180.77,-511.42"/>
<polygon fill="black" stroke="black" points="183.63,-513.43 186.33,-503.19 177.83,-509.52 183.63,-513.43"/>
</g>
<!-- external1 -->
<g id="node5" class="node">
<title>external1</title>
</g>
<!-- OPEN&#45;&gt;write -->
<g id="edge5" class="edge">
<title>OPEN&#45;&gt;write</title>
<path fill="none" stroke="black" d="M209.25,-506.79C211.84,-528.38 213.21,-560.54 212.6,-583.57"/>
<polygon fill="black" stroke="black" points="209.11,-583.32 212.15,-593.47 216.1,-583.64 209.11,-583.32"/>
</g>
<!-- OPEN&#45;&gt;read1 -->
<g id="edge6" class="edge">
<title>OPEN&#45;&gt;read1</title>
<path fill="none" stroke="black" d="M219.26,-501.93C234.89,-523.74 257.6,-560.22 271.19,-585.11"/>
<polygon fill="black" stroke="black" points="267.93,-586.44 275.7,-593.65 274.12,-583.17 267.93,-586.44"/>
</g>
<!-- OPEN&#45;&gt;export -->
<g id="edge7" class="edge">
<title>OPEN&#45;&gt;export</title>
<path fill="none" stroke="black" d="M195.01,-505.88C183.71,-528.11 163.61,-562.19 148.03,-585.65"/>
<polygon fill="black" stroke="black" points="145.26,-583.5 142.52,-593.73 151.04,-587.44 145.26,-583.5"/>
</g>
<!-- OPEN&#45;&gt;CLOSED -->
<g id="edge1" class="edge">
<title>OPEN&#45;&gt;CLOSED</title>
<path fill="none" stroke="black" d="M193.34,-460.1C184.56,-442.9 170.07,-419.29 151,-404.75 135.58,-392.99 115.96,-385.03 97.98,-379.72"/>
<polygon fill="black" stroke="black" points="99.09,-376.39 88.52,-377.14 97.25,-383.15 99.09,-376.39"/>
<text text-anchor="middle" x="190.75" y="-424.45" font-family="Times,serif" font-size="14.00">API</text>
<text text-anchor="middle" x="190.75" y="-407.95" font-family="Times,serif" font-size="14.00">Call</text>
</g>
<!-- OPEN&#45;&gt;CLOSED -->
<g id="edge2" class="edge">
<title>OPEN&#45;&gt;CLOSED</title>
<path fill="none" stroke="black" d="M168.66,-471.55C147.78,-464.38 121.36,-453.24 101.25,-437.75 86.62,-426.49 73.75,-410.33 64.33,-396.59"/>
<polygon fill="black" stroke="black" points="67.35,-394.81 58.93,-388.38 61.5,-398.66 67.35,-394.81"/>
<text text-anchor="middle" x="124.12" y="-424.45" font-family="Times,serif" font-size="14.00">Quorum</text>
<text text-anchor="middle" x="124.12" y="-407.95" font-family="Times,serif" font-size="14.00">Failure</text>
</g>
<!-- DELETED -->
<g id="node8" class="node">
<title>DELETED</title>
<polygon fill="none" stroke="black" points="87.62,-87.25 0.38,-87.25 0.38,0 87.62,0 87.62,-87.25"/>
<polyline fill="none" stroke="black" points="12.38,-87.25 0.38,-75.25"/>
<polyline fill="none" stroke="black" points="0.38,-12 12.38,0"/>
<polyline fill="none" stroke="black" points="75.62,0 87.62,-12"/>
<polyline fill="none" stroke="black" points="87.62,-75.25 75.62,-87.25"/>
<text text-anchor="middle" x="44" y="-37.8" font-family="Times,serif" font-size="16.00">DELETED</text>
</g>
<!-- CLOSED&#45;&gt;read2 -->
<g id="edge11" class="edge">
<title>CLOSED&#45;&gt;read2</title>
<path fill="none" stroke="black" d="M50.19,-387.15C50.37,-428.58 41.54,-533.4 33.93,-583.82"/>
<polygon fill="black" stroke="black" points="30.49,-583.19 32.32,-593.62 37.39,-584.32 30.49,-583.19"/>
</g>
<!-- CLOSED&#45;&gt;DELETED -->
<g id="edge3" class="edge">
<title>CLOSED&#45;&gt;DELETED</title>
<path fill="none" stroke="black" d="M47.78,-350.38C47.21,-303.65 45.6,-173.81 44.68,-99.21"/>
<polygon fill="black" stroke="black" points="48.18,-99.21 44.55,-89.25 41.18,-99.29 48.18,-99.21"/>
</g>
<!-- ARCHIVING -->
<g id="node10" class="node">
<title>ARCHIVING</title>
<polygon fill="none" stroke="black" points="163.88,-281.75 60.12,-281.75 60.12,-245.75 163.88,-245.75 163.88,-281.75"/>
<text text-anchor="middle" x="112" y="-257.93" font-family="Times,serif" font-size="16.00">ARCHIVING</text>
</g>
<!-- CLOSED&#45;&gt;ARCHIVING -->
<g id="edge4" class="edge">
<title>CLOSED&#45;&gt;ARCHIVING</title>
<path fill="none" stroke="black" d="M58.86,-350.28C68.85,-334.2 83.81,-310.11 95.32,-291.59"/>
<polygon fill="black" stroke="black" points="98.2,-293.59 100.5,-283.25 92.25,-289.9 98.2,-293.59"/>
<text text-anchor="middle" x="100.72" y="-319.45" font-family="Times,serif" font-size="14.00">API</text>
<text text-anchor="middle" x="100.72" y="-302.95" font-family="Times,serif" font-size="14.00">Call</text>
</g>
<!-- ARCHIVING&#45;&gt;external1 -->
<g id="edge15" class="edge">
<title>ARCHIVING&#45;&gt;external1</title>
<path fill="none" stroke="black" stroke-dasharray="1,5" d="M158.61,-245.41C166.64,-240.69 174.24,-234.87 180,-227.75 192.9,-211.81 198.59,-189.21 201.09,-171.4"/>
<polygon fill="black" stroke="black" points="204.57,-171.79 202.19,-161.47 197.61,-171.02 204.57,-171.79"/>
<text text-anchor="middle" x="228.1" y="-214.45" font-family="Times,serif" font-size="14.00">Writes</text>
<text text-anchor="middle" x="228.1" y="-197.95" font-family="Times,serif" font-size="14.00">Data</text>
<text text-anchor="middle" x="228.1" y="-181.45" font-family="Times,serif" font-size="14.00">Externally</text>
</g>
<!-- ARCHIVED -->
<g id="node11" class="node">
<title>ARCHIVED</title>
<polygon fill="none" stroke="black" points="157.5,-160.25 60.5,-160.25 60.5,-124.25 157.5,-124.25 157.5,-160.25"/>
<text text-anchor="middle" x="109" y="-136.43" font-family="Times,serif" font-size="16.00">ARCHIVED</text>
</g>
<!-- ARCHIVING&#45;&gt;ARCHIVED -->
<g id="edge13" class="edge">
<title>ARCHIVING&#45;&gt;ARCHIVED</title>
<path fill="none" stroke="black" d="M111.56,-245.37C111.08,-226.17 110.3,-194.93 109.72,-172.05"/>
<polygon fill="black" stroke="black" points="113.22,-172.07 109.47,-162.16 106.23,-172.25 113.22,-172.07"/>
<text text-anchor="middle" x="143.36" y="-206.2" font-family="Times,serif" font-size="14.00">On</text>
<text text-anchor="middle" x="143.36" y="-189.7" font-family="Times,serif" font-size="14.00">Completion</text>
</g>
<!-- ARCHIVED&#45;&gt;DELETED -->
<g id="edge14" class="edge">
<title>ARCHIVED&#45;&gt;DELETED</title>
<path fill="none" stroke="black" d="M97.38,-123.98C92.18,-116.24 85.74,-106.67 79.15,-96.88"/>
<polygon fill="black" stroke="black" points="82.16,-95.08 73.67,-88.73 76.35,-98.98 82.16,-95.08"/>
</g>
</g>
</svg>
