<?xml version="1.0" encoding="UTF-8" standalone="no"?>
<!DOCTYPE svg PUBLIC "-//W3C//DTD SVG 1.1//EN"
 "http://www.w3.org/Graphics/SVG/1.1/DTD/svg11.dtd">
<!--
  Licensed under the Apache License, Version 2.0 (the "License");
  you may not use this file except in compliance with the License.
  You may obtain a copy of the License at

    http://www.apache.org/licenses/LICENSE-2.0

  Unless required by applicable law or agreed to in writing, software
  distributed under the License is distributed on an "AS IS" BASIS,
  WITHOUT WARRANTIES OR CONDITIONS OF ANY KIND, either express or implied.
  See the License for the specific language governing permissions and
  limitations under the License. See accompanying LICENSE file.
-->
<!-- Generated by graphviz version 2.43.0 (0)
 -->
<!-- Title: LogServiceStates Pages: 1 -->
<svg width="357pt" height="634pt"
 viewBox="0.00 0.00 357.00 634.00" xmlns="http://www.w3.org/2000/svg" xmlns:xlink="http://www.w3.org/1999/xlink">
<g id="graph0" class="graph" transform="scale(1 1) rotate(0) translate(4 630)">
<title>LogServiceStates</title>
<polygon fill="white" stroke="transparent" points="-4,4 -4,-630 353,-630 353,4 -4,4"/>
<!-- write -->
<g id="node1" class="node">
<title>write</title>
<polygon fill="grey" stroke="transparent" points="264.5,-626 193.5,-626 193.5,-590 264.5,-590 264.5,-626"/>
<text text-anchor="middle" x="229" y="-604.2" font-family="Times,serif" font-size="16.00">write()</text>
</g>
<!-- OPEN -->
<g id="node7" class="node">
<title>OPEN</title>
<polygon fill="none" stroke="black" points="218,-509 152,-483 218,-457 284,-483 218,-509"/>
<polyline fill="none" stroke="black" points="163.16,-487.4 163.16,-478.6 "/>
<polyline fill="none" stroke="black" points="206.84,-461.4 229.16,-461.4 "/>
<polyline fill="none" stroke="black" points="272.84,-478.6 272.84,-487.4 "/>
<polyline fill="none" stroke="black" points="229.16,-504.6 206.84,-504.6 "/>
<text text-anchor="middle" x="218" y="-479.2" font-family="Times,serif" font-size="16.00">OPEN</text>
</g>
<!-- write&#45;&gt;OPEN -->
<g id="edge8" class="edge">
<title>write&#45;&gt;OPEN</title>
<path fill="none" stroke="black" d="M222.63,-589.9C218.96,-571.35 215.85,-541.27 214.93,-517.9"/>
<polygon fill="black" stroke="black" points="218.42,-517.6 214.66,-507.7 211.42,-517.78 218.42,-517.6"/>
</g>
<!-- read1 -->
<g id="node2" class="node">
<title>read1</title>
<polygon fill="grey" stroke="transparent" points="349,-626 283,-626 283,-590 349,-590 349,-626"/>
<text text-anchor="middle" x="316" y="-604.2" font-family="Times,serif" font-size="16.00">read()</text>
</g>
<!-- read1&#45;&gt;OPEN -->
<g id="edge9" class="edge">
<title>read1&#45;&gt;OPEN</title>
<path fill="none" stroke="black" d="M297.53,-589.9C279.54,-570.03 252.83,-536.91 235.28,-513"/>
<polygon fill="black" stroke="black" points="237.94,-510.71 229.25,-504.65 232.26,-514.81 237.94,-510.71"/>
</g>
<!-- read2 -->
<g id="node3" class="node">
<title>read2</title>
<polygon fill="grey" stroke="transparent" points="66,-626 0,-626 0,-590 66,-590 66,-626"/>
<text text-anchor="middle" x="33" y="-604.2" font-family="Times,serif" font-size="16.00">read()</text>
</g>
<!-- CLOSED -->
<g id="node9" class="node">
<title>CLOSED</title>
<polygon fill="none" stroke="black" points="98,-391 10,-391 10,-355 98,-355 98,-391"/>
<text text-anchor="middle" x="54" y="-369.2" font-family="Times,serif" font-size="16.00">CLOSED</text>
</g>
<!-- read2&#45;&gt;CLOSED -->
<g id="edge12" class="edge">
<title>read2&#45;&gt;CLOSED</title>
<path fill="none" stroke="black" d="M30.81,-589.87C30.68,-549.81 39.44,-449.75 47.02,-401.23"/>
<polygon fill="black" stroke="black" points="50.51,-401.6 48.71,-391.16 43.6,-400.44 50.51,-401.6"/>
</g>
<!-- export -->
<g id="node4" class="node">
<title>export</title>
<polygon fill="grey" stroke="transparent" points="175,-626 93,-626 93,-590 175,-590 175,-626"/>
<text text-anchor="middle" x="134" y="-604.2" font-family="Times,serif" font-size="16.00">export()</text>
</g>
<!-- external2 -->
<g id="node6" class="node">
<title>external2</title>
</g>
<!-- export&#45;&gt;external2 -->
<g id="edge16" class="edge">
<title>export&#45;&gt;external2</title>
<path fill="none" stroke="black" stroke-dasharray="1,5" d="M103.25,-589.94C97.1,-585 91.48,-579.01 88,-572 78.61,-553.05 81.93,-529.02 87,-510.86"/>
<polygon fill="black" stroke="black" points="90.38,-511.77 90.01,-501.18 83.7,-509.69 90.38,-511.77"/>
<text text-anchor="middle" x="125.5" y="-560.8" font-family="Times,serif" font-size="14.00">Writes</text>
<text text-anchor="middle" x="125.5" y="-545.8" font-family="Times,serif" font-size="14.00">Data</text>
<text text-anchor="middle" x="125.5" y="-530.8" font-family="Times,serif" font-size="14.00">Externally</text>
</g>
<!-- export&#45;&gt;OPEN -->
<g id="edge10" class="edge">
<title>export&#45;&gt;OPEN</title>
<path fill="none" stroke="black" d="M140.37,-589.92C144.6,-584.33 149.66,-578.01 154,-572 168.28,-552.22 182.84,-528.75 194.72,-511.02"/>
<polygon fill="black" stroke="black" points="197.91,-512.55 200.67,-502.32 192.14,-508.6 197.91,-512.55"/>
</g>
<!-- external1 -->
<g id="node5" class="node">
<title>external1</title>
</g>
<!-- OPEN&#45;&gt;write -->
<g id="edge5" class="edge">
<title>OPEN&#45;&gt;write</title>
<path fill="none" stroke="black" d="M225.35,-506.37C228.94,-527.04 231.81,-557.78 232.28,-579.85"/>
<polygon fill="black" stroke="black" points="228.78,-579.91 232.32,-589.9 235.78,-579.89 228.78,-579.91"/>
</g>
<!-- OPEN&#45;&gt;read1 -->
<g id="edge6" class="edge">
<title>OPEN&#45;&gt;read1</title>
<path fill="none" stroke="black" d="M237.06,-501.75C255.98,-522.74 284.16,-557.83 301.4,-581.67"/>
<polygon fill="black" stroke="black" points="298.59,-583.75 307.22,-589.9 304.3,-579.71 298.59,-583.75"/>
</g>
<!-- OPEN&#45;&gt;export -->
<g id="edge7" class="edge">
<title>OPEN&#45;&gt;export</title>
<path fill="none" stroke="black" d="M212.12,-506.97C203.12,-525.05 187.4,-550.67 172,-572 169.56,-575.38 166.89,-578.86 164.11,-582.25"/>
<polygon fill="black" stroke="black" points="161.37,-580.06 157.48,-589.92 166.67,-584.64 161.37,-580.06"/>
</g>
<!-- OPEN&#45;&gt;CLOSED -->
<g id="edge1" class="edge">
<title>OPEN&#45;&gt;CLOSED</title>
<path fill="none" stroke="black" d="M208.25,-460.51C199.79,-444.16 186.07,-422.29 168,-409 150.44,-396.09 128.05,-387.88 107.76,-382.68"/>
<polygon fill="black" stroke="black" points="108.54,-379.27 98,-380.37 106.92,-386.08 108.54,-379.27"/>
<text text-anchor="middle" x="209" y="-427.8" font-family="Times,serif" font-size="14.00">API</text>
<text text-anchor="middle" x="209" y="-412.8" font-family="Times,serif" font-size="14.00">Call</text>
</g>
<!-- OPEN&#45;&gt;CLOSED -->
<g id="edge2" class="edge">
<title>OPEN&#45;&gt;CLOSED</title>
<path fill="none" stroke="black" d="M178.67,-472.46C155.96,-465.65 127.69,-454.86 106,-439 91.59,-428.47 78.98,-412.97 69.79,-399.75"/>
<polygon fill="black" stroke="black" points="72.45,-397.43 63.99,-391.05 66.63,-401.31 72.45,-397.43"/>
<text text-anchor="middle" x="135" y="-427.8" font-family="Times,serif" font-size="14.00">Quorum</text>
<text text-anchor="middle" x="135" y="-412.8" font-family="Times,serif" font-size="14.00">Failure</text>
</g>
<!-- DELETED -->
<g id="node8" class="node">
<title>DELETED</title>
<polygon fill="none" stroke="black" points="99.5,-99 0.5,-99 0.5,0 99.5,0 99.5,-99"/>
<polyline fill="none" stroke="black" points="12.5,-99 0.5,-87 "/>
<polyline fill="none" stroke="black" points="0.5,-12 12.5,0 "/>
<polyline fill="none" stroke="black" points="87.5,0 99.5,-12 "/>
<polyline fill="none" stroke="black" points="99.5,-87 87.5,-99 "/>
<text text-anchor="middle" x="50" y="-45.7" font-family="Times,serif" font-size="16.00">DELETED</text>
</g>
<!-- CLOSED&#45;&gt;read2 -->
<g id="edge11" class="edge">
<title>CLOSED&#45;&gt;read2</title>
<path fill="none" stroke="black" d="M56.19,-391.16C56.31,-431.24 47.56,-531.3 39.98,-579.8"/>
<polygon fill="black" stroke="black" points="36.49,-579.42 38.28,-589.87 43.39,-580.59 36.49,-579.42"/>
</g>
<!-- CLOSED&#45;&gt;DELETED -->
<g id="edge3" class="edge">
<title>CLOSED&#45;&gt;DELETED</title>
<path fill="none" stroke="black" d="M53.78,-354.71C53.22,-309.19 51.67,-184.33 50.73,-109.47"/>
<polygon fill="black" stroke="black" points="54.23,-109.21 50.61,-99.26 47.23,-109.3 54.23,-109.21"/>
</g>
<!-- ARCHIVING -->
<g id="node10" class="node">
<title>ARCHIVING</title>
<polygon fill="none" stroke="black" points="182,-289 66,-289 66,-253 182,-253 182,-289"/>
<text text-anchor="middle" x="124" y="-267.2" font-family="Times,serif" font-size="16.00">ARCHIVING</text>
</g>
<!-- CLOSED&#45;&gt;ARCHIVING -->
<g id="edge4" class="edge">
<title>CLOSED&#45;&gt;ARCHIVING</title>
<path fill="none" stroke="black" d="M66.19,-354.58C77.23,-338.81 93.64,-315.37 106.16,-297.49"/>
<polygon fill="black" stroke="black" points="109.08,-299.42 111.95,-289.22 103.34,-295.4 109.08,-299.42"/>
<text text-anchor="middle" x="114" y="-325.8" font-family="Times,serif" font-size="14.00">API</text>
<text text-anchor="middle" x="114" y="-310.8" font-family="Times,serif" font-size="14.00">Call</text>
</g>
<!-- ARCHIVING&#45;&gt;external1 -->
<g id="edge15" class="edge">
<title>ARCHIVING&#45;&gt;external1</title>
<path fill="none" stroke="black" stroke-dasharray="1,5" d="M179.68,-252.96C188.41,-248.28 196.64,-242.39 203,-235 215.49,-220.5 220.94,-199.49 223.3,-182.65"/>
<polygon fill="black" stroke="black" points="226.82,-182.61 224.44,-172.29 219.86,-181.84 226.82,-182.61"/>
<text text-anchor="middle" x="258.5" y="-223.8" font-family="Times,serif" font-size="14.00">Writes</text>
<text text-anchor="middle" x="258.5" y="-208.8" font-family="Times,serif" font-size="14.00">Data</text>
<text text-anchor="middle" x="258.5" y="-193.8" font-family="Times,serif" font-size="14.00">Externally</text>
</g>
<!-- ARCHIVED -->
<g id="node11" class="node">
<title>ARCHIVED</title>
<polygon fill="none" stroke="black" points="174,-172 66,-172 66,-136 174,-136 174,-172"/>
<text text-anchor="middle" x="120" y="-150.2" font-family="Times,serif" font-size="16.00">ARCHIVED</text>
</g>
<!-- ARCHIVING&#45;&gt;ARCHIVED -->
<g id="edge13" class="edge">
<title>ARCHIVING&#45;&gt;ARCHIVED</title>
<path fill="none" stroke="black" d="M122.29,-252.93C121.78,-247.23 121.29,-240.85 121,-235 120.15,-217.58 119.89,-198.01 119.85,-182.59"/>
<polygon fill="black" stroke="black" points="123.35,-182.18 119.85,-172.18 116.35,-182.18 123.35,-182.18"/>
<text text-anchor="middle" x="162" y="-216.3" font-family="Times,serif" font-size="14.00">On</text>
<text text-anchor="middle" x="162" y="-201.3" font-family="Times,serif" font-size="14.00">Completion</text>
</g>
<!-- ARCHIVED&#45;&gt;DELETED -->
<g id="edge14" class="edge">
<title>ARCHIVED&#45;&gt;DELETED</title>
<path fill="none" stroke="black" d="M108.13,-135.61C102.76,-127.76 96.09,-117.98 89.19,-107.89"/>
<polygon fill="black" stroke="black" points="91.9,-105.65 83.37,-99.37 86.12,-109.6 91.9,-105.65"/>
</g>
</g>
</svg>
