<?xml version="1.0" encoding="UTF-8" standalone="no"?>
<!DOCTYPE svg PUBLIC "-//W3C//DTD SVG 1.1//EN"
 "http://www.w3.org/Graphics/SVG/1.1/DTD/svg11.dtd">
<!--
  Licensed under the Apache License, Version 2.0 (the "License");
  you may not use this file except in compliance with the License.
  You may obtain a copy of the License at

    http://www.apache.org/licenses/LICENSE-2.0

  Unless required by applicable law or agreed to in writing, software
  distributed under the License is distributed on an "AS IS" BASIS,
  WITHOUT WARRANTIES OR CONDITIONS OF ANY KIND, either express or implied.
  See the License for the specific language governing permissions and
  limitations under the License. See accompanying LICENSE file.
-->
<!-- Generated by graphviz version 2.44.1 (20200629.0846)
 -->
<!-- Title: LogServiceStates Pages: 1 -->
<svg width="319pt" height="623pt"
 viewBox="0.00 0.00 319.00 623.00" xmlns="http://www.w3.org/2000/svg" xmlns:xlink="http://www.w3.org/1999/xlink">
<g id="graph0" class="graph" transform="scale(1 1) rotate(0) translate(4 619)">
<title>LogServiceStates</title>
<polygon fill="white" stroke="transparent" points="-4,4 -4,-619 315,-619 315,4 -4,4"/>
<!-- write -->
<g id="node1" class="node">
<title>write</title>
<polygon fill="grey" stroke="transparent" points="238.5,-615 179.5,-615 179.5,-579 238.5,-579 238.5,-615"/>
<text text-anchor="middle" x="209" y="-593.2" font-family="Times,serif" font-size="16.00">write()</text>
</g>
<!-- OPEN -->
<g id="node7" class="node">
<title>OPEN</title>
<polygon fill="none" stroke="black" points="204,-498 146,-472 204,-446 262,-472 204,-498"/>
<polyline fill="none" stroke="black" points="156.95,-476.91 156.95,-467.09 "/>
<polyline fill="none" stroke="black" points="193.05,-450.91 214.95,-450.91 "/>
<polyline fill="none" stroke="black" points="251.05,-467.09 251.05,-476.91 "/>
<polyline fill="none" stroke="black" points="214.95,-493.09 193.05,-493.09 "/>
<text text-anchor="middle" x="204" y="-468.2" font-family="Times,serif" font-size="16.00">OPEN</text>
</g>
<!-- write&#45;&gt;OPEN -->
<g id="edge8" class="edge">
<title>write&#45;&gt;OPEN</title>
<path fill="none" stroke="black" d="M203.46,-578.9C200.68,-560.24 199.03,-529.9 199.28,-506.47"/>
<polygon fill="black" stroke="black" points="202.78,-506.33 199.52,-496.25 195.78,-506.17 202.78,-506.33"/>
</g>
<!-- read1 -->
<g id="node2" class="node">
<title>read1</title>
<polygon fill="grey" stroke="transparent" points="311,-615 257,-615 257,-579 311,-579 311,-615"/>
<text text-anchor="middle" x="284" y="-593.2" font-family="Times,serif" font-size="16.00">read()</text>
</g>
<!-- read1&#45;&gt;OPEN -->
<g id="edge9" class="edge">
<title>read1&#45;&gt;OPEN</title>
<path fill="none" stroke="black" d="M268.03,-578.9C253.2,-559.35 231.8,-526.98 217.72,-503.17"/>
<polygon fill="black" stroke="black" points="220.75,-501.41 212.71,-494.5 214.69,-504.91 220.75,-501.41"/>
</g>
<!-- read2 -->
<g id="node3" class="node">
<title>read2</title>
<polygon fill="grey" stroke="transparent" points="54,-615 0,-615 0,-579 54,-579 54,-615"/>
<text text-anchor="middle" x="27" y="-593.2" font-family="Times,serif" font-size="16.00">read()</text>
</g>
<!-- CLOSED -->
<g id="node9" class="node">
<title>CLOSED</title>
<polygon fill="none" stroke="black" points="87,-380 9,-380 9,-344 87,-344 87,-380"/>
<text text-anchor="middle" x="48" y="-358.2" font-family="Times,serif" font-size="16.00">CLOSED</text>
</g>
<!-- read2&#45;&gt;CLOSED -->
<g id="edge12" class="edge">
<title>read2&#45;&gt;CLOSED</title>
<path fill="none" stroke="black" d="M24.81,-578.87C24.68,-538.81 33.44,-438.75 41.02,-390.23"/>
<polygon fill="black" stroke="black" points="44.51,-390.6 42.71,-380.16 37.6,-389.44 44.51,-390.6"/>
</g>
<!-- export -->
<g id="node4" class="node">
<title>export</title>
<polygon fill="grey" stroke="transparent" points="161,-615 93,-615 93,-579 161,-579 161,-615"/>
<text text-anchor="middle" x="127" y="-593.2" font-family="Times,serif" font-size="16.00">export()</text>
</g>
<!-- external2 -->
<g id="node6" class="node">
<title>external2</title>
</g>
<!-- export&#45;&gt;external2 -->
<g id="edge16" class="edge">
<title>export&#45;&gt;external2</title>
<path fill="none" stroke="black" stroke-dasharray="1,5" d="M99.96,-578.76C94.32,-573.77 89.14,-567.8 86,-561 77.21,-541.95 79.27,-518.07 83.08,-499.99"/>
<polygon fill="black" stroke="black" points="86.52,-500.64 85.45,-490.1 79.72,-499 86.52,-500.64"/>
<text text-anchor="middle" x="114.5" y="-549.8" font-family="Times,serif" font-size="14.00">Writes</text>
<text text-anchor="middle" x="114.5" y="-534.8" font-family="Times,serif" font-size="14.00">Data</text>
<text text-anchor="middle" x="114.5" y="-519.8" font-family="Times,serif" font-size="14.00">Externally</text>
</g>
<!-- export&#45;&gt;OPEN -->
<g id="edge10" class="edge">
<title>export&#45;&gt;OPEN</title>
<path fill="none" stroke="black" d="M132.86,-578.9C143.51,-558.32 165.01,-523.55 181.75,-499.49"/>
<polygon fill="black" stroke="black" points="184.73,-501.34 187.68,-491.16 179.03,-497.28 184.73,-501.34"/>
</g>
<!-- external1 -->
<g id="node5" class="node">
<title>external1</title>
</g>
<!-- OPEN&#45;&gt;write -->
<g id="edge5" class="edge">
<title>OPEN&#45;&gt;write</title>
<path fill="none" stroke="black" d="M210.26,-495.37C212.84,-516.04 214.21,-546.78 213.61,-568.85"/>
<polygon fill="black" stroke="black" points="210.11,-568.75 213.15,-578.9 217.1,-569.07 210.11,-568.75"/>
</g>
<!-- OPEN&#45;&gt;read1 -->
<g id="edge6" class="edge">
<title>OPEN&#45;&gt;read1</title>
<path fill="none" stroke="black" d="M220.46,-490.75C236.18,-511.56 258.95,-546.22 272.74,-570.04"/>
<polygon fill="black" stroke="black" points="269.77,-571.9 277.72,-578.9 275.87,-568.47 269.77,-571.9"/>
</g>
<!-- OPEN&#45;&gt;export -->
<g id="edge7" class="edge">
<title>OPEN&#45;&gt;export</title>
<path fill="none" stroke="black" d="M195.81,-494.5C184.4,-515.69 164.25,-548.06 148.54,-570.52"/>
<polygon fill="black" stroke="black" points="145.52,-568.73 142.55,-578.9 151.22,-572.8 145.52,-568.73"/>
</g>
<!-- OPEN&#45;&gt;CLOSED -->
<g id="edge1" class="edge">
<title>OPEN&#45;&gt;CLOSED</title>
<path fill="none" stroke="black" d="M193.92,-450.31C184.99,-433.98 170.5,-411.72 152,-398 135.92,-386.07 115.51,-378.04 97.04,-372.71"/>
<polygon fill="black" stroke="black" points="97.87,-369.31 87.3,-370.09 96.05,-376.07 97.87,-369.31"/>
<text text-anchor="middle" x="189.5" y="-416.8" font-family="Times,serif" font-size="14.00">API</text>
<text text-anchor="middle" x="189.5" y="-401.8" font-family="Times,serif" font-size="14.00">Call</text>
</g>
<!-- OPEN&#45;&gt;CLOSED -->
<g id="edge2" class="edge">
<title>OPEN&#45;&gt;CLOSED</title>
<path fill="none" stroke="black" d="M169.73,-461.15C148.86,-454.07 122.37,-443.11 102,-428 87.41,-417.17 74.29,-401.61 64.64,-388.42"/>
<polygon fill="black" stroke="black" points="67.45,-386.32 58.82,-380.17 61.73,-390.36 67.45,-386.32"/>
<text text-anchor="middle" x="125" y="-416.8" font-family="Times,serif" font-size="14.00">Quorum</text>
<text text-anchor="middle" x="125" y="-401.8" font-family="Times,serif" font-size="14.00">Failure</text>
</g>
<!-- DELETED -->
<g id="node8" class="node">
<title>DELETED</title>
<polygon fill="none" stroke="black" points="88,-88 0,-88 0,0 88,0 88,-88"/>
<polyline fill="none" stroke="black" points="12,-88 0,-76 "/>
<polyline fill="none" stroke="black" points="0,-12 12,0 "/>
<polyline fill="none" stroke="black" points="76,0 88,-12 "/>
<polyline fill="none" stroke="black" points="88,-76 76,-88 "/>
<text text-anchor="middle" x="44" y="-40.2" font-family="Times,serif" font-size="16.00">DELETED</text>
</g>
<!-- CLOSED&#45;&gt;read2 -->
<g id="edge11" class="edge">
<title>CLOSED&#45;&gt;read2</title>
<path fill="none" stroke="black" d="M50.19,-380.16C50.31,-420.24 41.56,-520.3 33.98,-568.8"/>
<polygon fill="black" stroke="black" points="30.49,-568.42 32.28,-578.87 37.39,-569.59 30.49,-568.42"/>
</g>
<!-- CLOSED&#45;&gt;DELETED -->
<g id="edge3" class="edge">
<title>CLOSED&#45;&gt;DELETED</title>
<path fill="none" stroke="black" d="M47.78,-343.56C47.2,-297.5 45.6,-171.16 44.68,-98.44"/>
<polygon fill="black" stroke="black" points="48.17,-98.07 44.55,-88.11 41.17,-98.16 48.17,-98.07"/>
</g>
<!-- ARCHIVING -->
<g id="node10" class="node">
<title>ARCHIVING</title>
<polygon fill="none" stroke="black" points="164,-278 60,-278 60,-242 164,-242 164,-278"/>
<text text-anchor="middle" x="112" y="-256.2" font-family="Times,serif" font-size="16.00">ARCHIVING</text>
</g>
<!-- CLOSED&#45;&gt;ARCHIVING -->
<g id="edge4" class="edge">
<title>CLOSED&#45;&gt;ARCHIVING</title>
<path fill="none" stroke="black" d="M59.15,-343.58C69.15,-327.95 83.97,-304.8 95.37,-286.98"/>
<polygon fill="black" stroke="black" points="98.54,-288.53 100.98,-278.22 92.64,-284.76 98.54,-288.53"/>
<text text-anchor="middle" x="101.5" y="-314.8" font-family="Times,serif" font-size="14.00">API</text>
<text text-anchor="middle" x="101.5" y="-299.8" font-family="Times,serif" font-size="14.00">Call</text>
</g>
<!-- ARCHIVING&#45;&gt;external1 -->
<g id="edge15" class="edge">
<title>ARCHIVING&#45;&gt;external1</title>
<path fill="none" stroke="black" stroke-dasharray="1,5" d="M158.93,-241.95C167.2,-237.2 175.05,-231.28 181,-224 193.11,-209.17 198.57,-188.18 201.03,-171.42"/>
<polygon fill="black" stroke="black" points="204.55,-171.47 202.25,-161.13 197.6,-170.65 204.55,-171.47"/>
<text text-anchor="middle" x="227.5" y="-212.8" font-family="Times,serif" font-size="14.00">Writes</text>
<text text-anchor="middle" x="227.5" y="-197.8" font-family="Times,serif" font-size="14.00">Data</text>
<text text-anchor="middle" x="227.5" y="-182.8" font-family="Times,serif" font-size="14.00">Externally</text>
</g>
<!-- ARCHIVED -->
<g id="node11" class="node">
<title>ARCHIVED</title>
<polygon fill="none" stroke="black" points="158,-161 60,-161 60,-125 158,-125 158,-161"/>
<text text-anchor="middle" x="109" y="-139.2" font-family="Times,serif" font-size="16.00">ARCHIVED</text>
</g>
<!-- ARCHIVING&#45;&gt;ARCHIVED -->
<g id="edge13" class="edge">
<title>ARCHIVING&#45;&gt;ARCHIVED</title>
<path fill="none" stroke="black" d="M111.54,-241.53C111.06,-222.94 110.28,-193.24 109.72,-171.5"/>
<polygon fill="black" stroke="black" points="113.21,-171.16 109.45,-161.25 106.21,-171.34 113.21,-171.16"/>
<text text-anchor="middle" x="144.5" y="-205.3" font-family="Times,serif" font-size="14.00">On</text>
<text text-anchor="middle" x="144.5" y="-190.3" font-family="Times,serif" font-size="14.00">Completion</text>
</g>
<!-- ARCHIVED&#45;&gt;DELETED -->
<g id="edge14" class="edge">
<title>ARCHIVED&#45;&gt;DELETED</title>
<path fill="none" stroke="black" d="M97.38,-124.66C92.02,-116.65 85.34,-106.69 78.54,-96.54"/>
<polygon fill="black" stroke="black" points="81.3,-94.38 72.83,-88.02 75.49,-98.27 81.3,-94.38"/>
</g>
</g>
</svg>
