<?xml version="1.0" encoding="UTF-8" standalone="no"?>
<!DOCTYPE svg PUBLIC "-//W3C//DTD SVG 1.1//EN"
 "http://www.w3.org/Graphics/SVG/1.1/DTD/svg11.dtd">
<!--
            Licensed under the Apache License, Version 2.0 (the "License");
  you may not use this file except in compliance with the License.
  You may obtain a copy of the License at

    http://www.apache.org/licenses/LICENSE-2.0

  Unless required by applicable law or agreed to in writing, software
  distributed under the License is distributed on an "AS IS" BASIS,
  WITHOUT WARRANTIES OR CONDITIONS OF ANY KIND, either express or implied.
  See the License for the specific language governing permissions and
  limitations under the License. See accompanying LICENSE file.
-->
<!-- Generated by graphviz version 2.38.0 (20140413.2041)
 -->
<!-- Title: LogServiceStates Pages: 1 -->
<svg width="319pt" height="623pt"
 viewBox="0.00 0.00 319.00 623.00" xmlns="http://www.w3.org/2000/svg" xmlns:xlink="http://www.w3.org/1999/xlink">
<g id="graph0" class="graph" transform="scale(1 1) rotate(0) translate(4 619)">
<title>LogServiceStates</title>
<polygon fill="white" stroke="none" points="-4,4 -4,-619 315,-619 315,4 -4,4"/>
<!-- write -->
<g id="node1" class="node"><title>write</title>
<polygon fill="grey" stroke="none" points="238.5,-615 179.5,-615 179.5,-579 238.5,-579 238.5,-615"/>
<text text-anchor="middle" x="209" y="-593.2" font-family="Times,serif" font-size="16.00">write()</text>
</g>
<!-- OPEN -->
<g id="node7" class="node"><title>OPEN</title>
<polygon fill="none" stroke="black" points="199,-498 141,-472 199,-446 257,-472 199,-498"/>
<polyline fill="none" stroke="black" points="151.95,-476.909 151.95,-467.091 "/>
<polyline fill="none" stroke="black" points="188.05,-450.909 209.95,-450.909 "/>
<polyline fill="none" stroke="black" points="246.05,-467.091 246.05,-476.909 "/>
<polyline fill="none" stroke="black" points="209.95,-493.091 188.05,-493.091 "/>
<text text-anchor="middle" x="199" y="-468.2" font-family="Times,serif" font-size="16.00">OPEN</text>
</g>
<!-- write&#45;&gt;OPEN -->
<g id="edge8" class="edge"><title>write&#45;&gt;OPEN</title>
<path fill="none" stroke="black" d="M202.765,-578.897C199.248,-560.351 196.382,-530.269 195.651,-506.898"/>
<polygon fill="black" stroke="black" points="199.147,-506.634 195.47,-496.697 192.148,-506.758 199.147,-506.634"/>
</g>
<!-- read1 -->
<g id="node2" class="node"><title>read1</title>
<polygon fill="grey" stroke="none" points="311,-615 257,-615 257,-579 311,-579 311,-615"/>
<text text-anchor="middle" x="284" y="-593.2" font-family="Times,serif" font-size="16.00">read()</text>
</g>
<!-- read1&#45;&gt;OPEN -->
<g id="edge9" class="edge"><title>read1&#45;&gt;OPEN</title>
<path fill="none" stroke="black" d="M267.336,-578.897C251.615,-559.231 228.717,-526.594 213.676,-502.741"/>
<polygon fill="black" stroke="black" points="216.558,-500.746 208.328,-494.075 210.601,-504.423 216.558,-500.746"/>
</g>
<!-- read2 -->
<g id="node3" class="node"><title>read2</title>
<polygon fill="grey" stroke="none" points="54,-615 0,-615 0,-579 54,-579 54,-615"/>
<text text-anchor="middle" x="27" y="-593.2" font-family="Times,serif" font-size="16.00">read()</text>
</g>
<!-- CLOSED -->
<g id="node9" class="node"><title>CLOSED</title>
<polygon fill="none" stroke="black" points="102,-380 24,-380 24,-344 102,-344 102,-380"/>
<text text-anchor="middle" x="63" y="-358.2" font-family="Times,serif" font-size="16.00">CLOSED</text>
</g>
<!-- read2&#45;&gt;CLOSED -->
<g id="edge12" class="edge"><title>read2&#45;&gt;CLOSED</title>
<path fill="none" stroke="black" d="M25.9089,-578.867C28.3709,-538.724 43.6258,-438.331 54.332,-389.929"/>
<polygon fill="black" stroke="black" points="57.7479,-390.692 56.6083,-380.158 50.9305,-389.103 57.7479,-390.692"/>
</g>
<!-- export -->
<g id="node4" class="node"><title>export</title>
<polygon fill="grey" stroke="none" points="161,-615 93,-615 93,-579 161,-579 161,-615"/>
<text text-anchor="middle" x="127" y="-593.2" font-family="Times,serif" font-size="16.00">export()</text>
</g>
<!-- external2 -->
<g id="node6" class="node"><title>external2</title>
</g>
<!-- export&#45;&gt;external2 -->
<g id="edge16" class="edge"><title>export&#45;&gt;external2</title>
<path fill="none" stroke="black" stroke-dasharray="1,5" d="M99.9552,-578.758C94.3151,-573.767 89.1354,-567.799 86,-561 77.2148,-541.949 79.2728,-518.066 83.08,-499.989"/>
<polygon fill="black" stroke="black" points="86.5236,-500.638 85.455,-490.097 79.717,-499.004 86.5236,-500.638"/>
<text text-anchor="middle" x="114.5" y="-549.8" font-family="Times,serif" font-size="14.00">Writes</text>
<text text-anchor="middle" x="114.5" y="-534.8" font-family="Times,serif" font-size="14.00">Data</text>
<text text-anchor="middle" x="114.5" y="-519.8" font-family="Times,serif" font-size="14.00">Externally</text>
</g>
<!-- export&#45;&gt;OPEN -->
<g id="edge10" class="edge"><title>export&#45;&gt;OPEN</title>
<path fill="none" stroke="black" d="M132.166,-578.897C141.982,-558.321 162.065,-523.547 177.829,-499.489"/>
<polygon fill="black" stroke="black" points="180.754,-501.413 183.415,-491.157 174.94,-497.515 180.754,-501.413"/>
</g>
<!-- external1 -->
<g id="node5" class="node"><title>external1</title>
</g>
<!-- OPEN&#45;&gt;write -->
<g id="edge5" class="edge"><title>OPEN&#45;&gt;write</title>
<path fill="none" stroke="black" d="M206.095,-494.937C209.546,-515.583 212.199,-546.566 212.502,-568.78"/>
<polygon fill="black" stroke="black" points="209.001,-568.881 212.455,-578.897 216.001,-568.914 209.001,-568.881"/>
</g>
<!-- OPEN&#45;&gt;read1 -->
<g id="edge6" class="edge"><title>OPEN&#45;&gt;read1</title>
<path fill="none" stroke="black" d="M216.183,-490.754C232.743,-511.56 256.93,-546.217 271.688,-570.041"/>
<polygon fill="black" stroke="black" points="268.866,-572.14 277.026,-578.897 274.861,-568.526 268.866,-572.14"/>
</g>
<!-- OPEN&#45;&gt;export -->
<g id="edge7" class="edge"><title>OPEN&#45;&gt;export</title>
<path fill="none" stroke="black" d="M191.47,-494.937C180.876,-516.146 162.168,-548.263 147.469,-570.578"/>
<polygon fill="black" stroke="black" points="144.548,-568.65 141.856,-578.897 150.351,-572.565 144.548,-568.65"/>
</g>
<!-- OPEN&#45;&gt;CLOSED -->
<g id="edge1" class="edge"><title>OPEN&#45;&gt;CLOSED</title>
<path fill="none" stroke="black" d="M189.088,-450.274C180.458,-434.137 166.582,-412.17 149,-398 138.199,-389.294 124.94,-382.486 112.097,-377.284"/>
<polygon fill="black" stroke="black" points="112.996,-373.882 102.405,-373.614 110.518,-380.428 112.996,-373.882"/>
<text text-anchor="middle" x="186.5" y="-416.8" font-family="Times,serif" font-size="14.00">API</text>
<text text-anchor="middle" x="186.5" y="-401.8" font-family="Times,serif" font-size="14.00">Call</text>
</g>
<!-- OPEN&#45;&gt;CLOSED -->
<g id="edge2" class="edge"><title>OPEN&#45;&gt;CLOSED</title>
<path fill="none" stroke="black" d="M167.42,-459.972C142.252,-450.726 109.544,-437.542 99,-428 87.4909,-417.585 78.8476,-402.6 72.9188,-389.642"/>
<polygon fill="black" stroke="black" points="76.0515,-388.066 68.9116,-380.238 69.6118,-390.81 76.0515,-388.066"/>
<text text-anchor="middle" x="122" y="-416.8" font-family="Times,serif" font-size="14.00">Quorum</text>
<text text-anchor="middle" x="122" y="-401.8" font-family="Times,serif" font-size="14.00">Failure</text>
</g>
<!-- DELETED -->
<g id="node8" class="node"><title>DELETED</title>
<polygon fill="none" stroke="black" points="116,-88 28,-88 28,-0 116,-0 116,-88"/>
<polyline fill="none" stroke="black" points="40,-88 28,-76 "/>
<polyline fill="none" stroke="black" points="28,-12 40,-0 "/>
<polyline fill="none" stroke="black" points="104,-0 116,-12 "/>
<polyline fill="none" stroke="black" points="116,-76 104,-88 "/>
<text text-anchor="middle" x="72" y="-40.2" font-family="Times,serif" font-size="16.00">DELETED</text>
</g>
<!-- CLOSED&#45;&gt;read2 -->
<g id="edge11" class="edge"><title>CLOSED&#45;&gt;read2</title>
<path fill="none" stroke="black" d="M64.0896,-380.158C61.6222,-420.327 46.3656,-520.721 35.6613,-569.102"/>
<polygon fill="black" stroke="black" points="32.2466,-568.334 33.3854,-578.867 39.0639,-569.922 32.2466,-568.334"/>
</g>
<!-- CLOSED&#45;&gt;DELETED -->
<g id="edge3" class="edge"><title>CLOSED&#45;&gt;DELETED</title>
<path fill="none" stroke="black" d="M62.8529,-343.815C62.5996,-304.862 62.4129,-206.873 66,-125 66.3809,-116.306 66.9334,-107.089 67.5509,-98.1242"/>
<polygon fill="black" stroke="black" points="71.0417,-98.3758 68.27,-88.15 64.0598,-97.8724 71.0417,-98.3758"/>
</g>
<!-- ARCHIVING -->
<g id="node10" class="node"><title>ARCHIVING</title>
<polygon fill="none" stroke="black" points="179,-278 75,-278 75,-242 179,-242 179,-278"/>
<text text-anchor="middle" x="127" y="-256.2" font-family="Times,serif" font-size="16.00">ARCHIVING</text>
</g>
<!-- CLOSED&#45;&gt;ARCHIVING -->
<g id="edge4" class="edge"><title>CLOSED&#45;&gt;ARCHIVING</title>
<path fill="none" stroke="black" d="M74.1479,-343.581C84.1511,-327.951 98.9692,-304.798 110.372,-286.981"/>
<polygon fill="black" stroke="black" points="113.537,-288.528 115.98,-278.219 107.641,-284.755 113.537,-288.528"/>
<text text-anchor="middle" x="116.5" y="-314.8" font-family="Times,serif" font-size="14.00">API</text>
<text text-anchor="middle" x="116.5" y="-299.8" font-family="Times,serif" font-size="14.00">Call</text>
</g>
<!-- ARCHIVING&#45;&gt;external1 -->
<g id="edge15" class="edge"><title>ARCHIVING&#45;&gt;external1</title>
<path fill="none" stroke="black" stroke-dasharray="1,5" d="M173.925,-241.952C182.198,-237.199 190.052,-231.282 196,-224 208.109,-209.174 213.574,-188.183 216.031,-171.423"/>
<polygon fill="black" stroke="black" points="219.55,-171.469 217.25,-161.127 212.598,-170.646 219.55,-171.469"/>
<text text-anchor="middle" x="243.5" y="-212.8" font-family="Times,serif" font-size="14.00">Writes</text>
<text text-anchor="middle" x="243.5" y="-197.8" font-family="Times,serif" font-size="14.00">Data</text>
<text text-anchor="middle" x="243.5" y="-182.8" font-family="Times,serif" font-size="14.00">Externally</text>
</g>
<!-- ARCHIVED -->
<g id="node11" class="node"><title>ARCHIVED</title>
<polygon fill="none" stroke="black" points="173,-161 75,-161 75,-125 173,-125 173,-161"/>
<text text-anchor="middle" x="124" y="-139.2" font-family="Times,serif" font-size="16.00">ARCHIVED</text>
</g>
<!-- ARCHIVING&#45;&gt;ARCHIVED -->
<g id="edge13" class="edge"><title>ARCHIVING&#45;&gt;ARCHIVED</title>
<path fill="none" stroke="black" d="M126.544,-241.534C126.059,-222.936 125.285,-193.244 124.717,-171.501"/>
<polygon fill="black" stroke="black" points="128.21,-171.159 124.45,-161.254 121.212,-171.341 128.21,-171.159"/>
<text text-anchor="middle" x="159.5" y="-205.3" font-family="Times,serif" font-size="14.00">On</text>
<text text-anchor="middle" x="159.5" y="-190.3" font-family="Times,serif" font-size="14.00">Completion</text>
</g>
<!-- ARCHIVED&#45;&gt;DELETED -->
<g id="edge14" class="edge"><title>ARCHIVED&#45;&gt;DELETED</title>
<path fill="none" stroke="black" d="M114.703,-124.658C110.456,-116.735 105.176,-106.887 99.7941,-96.8468"/>
<polygon fill="black" stroke="black" points="102.871,-95.1776 95.0611,-88.0178 96.7012,-98.4849 102.871,-95.1776"/>
</g>
</g>
</svg>
